<?xml version="1.0" standalone="no"?>
<!DOCTYPE svg PUBLIC "-//W3C//DTD SVG 20010904//EN"
 "http://www.w3.org/TR/2001/REC-SVG-20010904/DTD/svg10.dtd">
<svg version="1.0" xmlns="http://www.w3.org/2000/svg"
 width="395.000000pt" height="395.000000pt" viewBox="0 0 395.000000 395.000000"
 preserveAspectRatio="xMidYMid meet">
<metadata>
Created by potrace 1.14, written by Peter Selinger 2001-2017
</metadata>
<g transform="translate(0.000000,395.000000) scale(0.100000,-0.100000)"
fill="#000000" stroke="none">
<path d="M1855 3540 c-64 -12 -163 -47 -197 -71 -14 -11 -29 -19 -34 -19 -10
0 -94 -68 -123 -99 -56 -61 -106 -140 -231 -361 -155 -276 -148 -263 -305
-540 -67 -118 -133 -235 -147 -260 -14 -25 -61 -108 -105 -185 -44 -77 -91
-160 -105 -185 -14 -25 -34 -61 -45 -80 -206 -355 -238 -419 -263 -516 -90
-361 144 -732 509 -807 64 -13 228 -15 1170 -15 851 0 1109 3 1156 13 251 54
437 227 508 475 21 71 25 103 23 195 -3 124 -28 216 -89 321 -19 32 -105 185
-192 339 -87 154 -181 321 -210 370 -29 50 -64 111 -79 138 -55 100 -80 143
-98 172 -10 17 -21 37 -25 45 -4 8 -39 71 -79 140 -39 69 -83 146 -98 173 -66
119 -81 144 -103 179 -12 21 -23 39 -23 41 0 13 -148 260 -178 297 -86 108
-199 184 -332 224 -65 20 -234 29 -305 16z m-124 -1051 c21 -7 51 -26 67 -43
45 -48 255 -404 248 -422 -3 -8 -86 -149 -183 -312 -98 -163 -180 -302 -183
-307 -3 -6 -59 -100 -125 -209 -108 -180 -120 -204 -122 -250 -1 -52 28 -126
51 -126 7 0 7 -3 -1 -8 -6 -4 -157 -7 -335 -6 -322 0 -324 1 -366 24 -66 37
-100 98 -95 168 3 51 -3 38 142 282 64 107 121 203 126 212 6 10 39 66 75 125
188 313 290 486 290 494 0 5 4 9 9 9 5 0 11 8 15 18 3 9 14 31 24 47 11 17 46
75 78 130 73 124 89 143 139 166 46 21 92 24 146 8z m799 -331 c42 -21 55 -40
187 -258 79 -129 223 -367 320 -528 230 -378 222 -364 227 -405 6 -48 -27
-111 -72 -139 l-37 -23 -695 1 c-664 0 -696 1 -727 19 -50 29 -77 72 -77 125
-1 50 -20 16 306 555 418 690 385 641 441 662 48 17 78 15 127 -9z"/>
</g>
</svg>
